<svg width="161" height="20" viewBox="0 0 161 20" fill="none" xmlns="http://www.w3.org/2000/svg">
<path d="M0.792 12.304C0.792 10.96 1.056 9.768 1.584 8.728C2.128 7.688 2.856 6.888 3.768 6.328C4.696 5.768 5.728 5.488 6.864 5.488C7.856 5.488 8.72 5.688 9.456 6.088C10.208 6.488 10.808 6.992 11.256 7.6V5.704H14.64V19H11.256V17.056C10.824 17.68 10.224 18.2 9.456 18.616C8.704 19.016 7.832 19.216 6.84 19.216C5.72 19.216 4.696 18.928 3.768 18.352C2.856 17.776 2.128 16.968 1.584 15.928C1.056 14.872 0.792 13.664 0.792 12.304ZM11.256 12.352C11.256 11.536 11.096 10.84 10.776 10.264C10.456 9.672 10.024 9.224 9.48 8.92C8.936 8.6 8.352 8.44 7.728 8.44C7.104 8.44 6.528 8.592 6 8.896C5.472 9.2 5.04 9.648 4.704 10.24C4.384 10.816 4.224 11.504 4.224 12.304C4.224 13.104 4.384 13.808 4.704 14.416C5.04 15.008 5.472 15.464 6 15.784C6.544 16.104 7.12 16.264 7.728 16.264C8.352 16.264 8.936 16.112 9.48 15.808C10.024 15.488 10.456 15.04 10.776 14.464C11.096 13.872 11.256 13.168 11.256 12.352ZM17.0576 12.304C17.0576 10.96 17.3216 9.768 17.8496 8.728C18.3936 7.688 19.1296 6.888 20.0576 6.328C20.9856 5.768 22.0176 5.488 23.1536 5.488C24.0176 5.488 24.8416 5.68 25.6256 6.064C26.4096 6.432 27.0336 6.928 27.4976 7.552V1.24H30.9056V19H27.4976V17.032C27.0816 17.688 26.4976 18.216 25.7456 18.616C24.9936 19.016 24.1216 19.216 23.1296 19.216C22.0096 19.216 20.9856 18.928 20.0576 18.352C19.1296 17.776 18.3936 16.968 17.8496 15.928C17.3216 14.872 17.0576 13.664 17.0576 12.304ZM27.5216 12.352C27.5216 11.536 27.3616 10.84 27.0416 10.264C26.7216 9.672 26.2896 9.224 25.7456 8.92C25.2016 8.6 24.6176 8.44 23.9936 8.44C23.3696 8.44 22.7936 8.592 22.2656 8.896C21.7376 9.2 21.3056 9.648 20.9696 10.24C20.6496 10.816 20.4896 11.504 20.4896 12.304C20.4896 13.104 20.6496 13.808 20.9696 14.416C21.3056 15.008 21.7376 15.464 22.2656 15.784C22.8096 16.104 23.3856 16.264 23.9936 16.264C24.6176 16.264 25.2016 16.112 25.7456 15.808C26.2896 15.488 26.7216 15.04 27.0416 14.464C27.3616 13.872 27.5216 13.168 27.5216 12.352ZM50.6993 5.512C52.3313 5.512 53.6433 6.016 54.6353 7.024C55.6433 8.016 56.1473 9.408 56.1473 11.2V19H52.7873V11.656C52.7873 10.616 52.5233 9.824 51.9953 9.28C51.4673 8.72 50.7473 8.44 49.8353 8.44C48.9233 8.44 48.1953 8.72 47.6513 9.28C47.1233 9.824 46.8593 10.616 46.8593 11.656V19H43.4993V11.656C43.4993 10.616 43.2353 9.824 42.7073 9.28C42.1793 8.72 41.4593 8.44 40.5473 8.44C39.6193 8.44 38.8833 8.72 38.3393 9.28C37.8113 9.824 37.5473 10.616 37.5473 11.656V19H34.1873V5.704H37.5473V7.312C37.9793 6.752 38.5313 6.312 39.2033 5.992C39.8913 5.672 40.6433 5.512 41.4593 5.512C42.4993 5.512 43.4273 5.736 44.2433 6.184C45.0593 6.616 45.6913 7.24 46.1393 8.056C46.5713 7.288 47.1953 6.672 48.0113 6.208C48.8433 5.744 49.7393 5.512 50.6993 5.512ZM61.0397 4.12C60.4477 4.12 59.9517 3.936 59.5517 3.568C59.1677 3.184 58.9757 2.712 58.9757 2.152C58.9757 1.592 59.1677 1.128 59.5517 0.759999C59.9517 0.375999 60.4477 0.183999 61.0397 0.183999C61.6317 0.183999 62.1197 0.375999 62.5037 0.759999C62.9037 1.128 63.1037 1.592 63.1037 2.152C63.1037 2.712 62.9037 3.184 62.5037 3.568C62.1197 3.936 61.6317 4.12 61.0397 4.12ZM62.6957 5.704V19H59.3357V5.704H62.6957ZM73.3834 5.512C74.9674 5.512 76.2474 6.016 77.2234 7.024C78.1994 8.016 78.6874 9.408 78.6874 11.2V19H75.3274V11.656C75.3274 10.6 75.0634 9.792 74.5354 9.232C74.0074 8.656 73.2874 8.368 72.3754 8.368C71.4474 8.368 70.7114 8.656 70.1674 9.232C69.6394 9.792 69.3754 10.6 69.3754 11.656V19H66.0154V5.704H69.3754V7.36C69.8234 6.784 70.3914 6.336 71.0794 6.016C71.7834 5.68 72.5514 5.512 73.3834 5.512Z" fill="white"/>
<path d="M87.6666 19.168C86.4986 19.168 85.4426 18.968 84.4986 18.568C83.5706 18.168 82.8346 17.592 82.2906 16.84C81.7466 16.088 81.4666 15.2 81.4506 14.176H85.0506C85.0986 14.864 85.3386 15.408 85.7706 15.808C86.2186 16.208 86.8266 16.408 87.5946 16.408C88.3786 16.408 88.9946 16.224 89.4426 15.856C89.8906 15.472 90.1146 14.976 90.1146 14.368C90.1146 13.872 89.9626 13.464 89.6586 13.144C89.3546 12.824 88.9706 12.576 88.5066 12.4C88.0586 12.208 87.4346 12 86.6346 11.776C85.5466 11.456 84.6586 11.144 83.9706 10.84C83.2986 10.52 82.7146 10.048 82.2186 9.424C81.7386 8.784 81.4986 7.936 81.4986 6.88C81.4986 5.888 81.7466 5.024 82.2426 4.288C82.7386 3.552 83.4346 2.992 84.3306 2.608C85.2266 2.208 86.2506 2.008 87.4026 2.008C89.1306 2.008 90.5306 2.432 91.6026 3.28C92.6906 4.112 93.2906 5.28 93.4026 6.784H89.7066C89.6746 6.208 89.4266 5.736 88.9626 5.368C88.5146 4.984 87.9146 4.792 87.1626 4.792C86.5066 4.792 85.9786 4.96 85.5786 5.296C85.1946 5.632 85.0026 6.12 85.0026 6.76C85.0026 7.208 85.1466 7.584 85.4346 7.888C85.7386 8.176 86.1066 8.416 86.5386 8.608C86.9866 8.784 87.6106 8.992 88.4106 9.232C89.4986 9.552 90.3866 9.872 91.0746 10.192C91.7626 10.512 92.3546 10.992 92.8506 11.632C93.3466 12.272 93.5946 13.112 93.5946 14.152C93.5946 15.048 93.3626 15.88 92.8986 16.648C92.4346 17.416 91.7546 18.032 90.8586 18.496C89.9626 18.944 88.8986 19.168 87.6666 19.168ZM95.6436 12.352C95.6436 10.976 95.9236 9.776 96.4836 8.752C97.0436 7.712 97.8196 6.912 98.8116 6.352C99.8036 5.776 100.94 5.488 102.22 5.488C103.868 5.488 105.228 5.904 106.3 6.736C107.388 7.552 108.116 8.704 108.484 10.192H104.86C104.668 9.616 104.34 9.168 103.876 8.848C103.428 8.512 102.868 8.344 102.196 8.344C101.236 8.344 100.476 8.696 99.9156 9.4C99.3556 10.088 99.0756 11.072 99.0756 12.352C99.0756 13.616 99.3556 14.6 99.9156 15.304C100.476 15.992 101.236 16.336 102.196 16.336C103.556 16.336 104.444 15.728 104.86 14.512H108.484C108.116 15.952 107.388 17.096 106.3 17.944C105.212 18.792 103.852 19.216 102.22 19.216C100.94 19.216 99.8036 18.936 98.8116 18.376C97.8196 17.8 97.0436 17 96.4836 15.976C95.9236 14.936 95.6436 13.728 95.6436 12.352ZM118.433 5.512C119.441 5.512 120.337 5.736 121.121 6.184C121.905 6.616 122.513 7.264 122.945 8.128C123.393 8.976 123.617 10 123.617 11.2V19H120.257V11.656C120.257 10.6 119.993 9.792 119.465 9.232C118.937 8.656 118.217 8.368 117.305 8.368C116.377 8.368 115.641 8.656 115.097 9.232C114.569 9.792 114.305 10.6 114.305 11.656V19H110.945V1.24H114.305V7.36C114.737 6.784 115.313 6.336 116.033 6.016C116.753 5.68 117.553 5.512 118.433 5.512ZM132.716 19.216C131.436 19.216 130.284 18.936 129.26 18.376C128.236 17.8 127.428 16.992 126.836 15.952C126.26 14.912 125.972 13.712 125.972 12.352C125.972 10.992 126.268 9.792 126.86 8.752C127.468 7.712 128.292 6.912 129.332 6.352C130.372 5.776 131.532 5.488 132.812 5.488C134.092 5.488 135.252 5.776 136.292 6.352C137.332 6.912 138.148 7.712 138.74 8.752C139.348 9.792 139.652 10.992 139.652 12.352C139.652 13.712 139.34 14.912 138.716 15.952C138.108 16.992 137.276 17.8 136.22 18.376C135.18 18.936 134.012 19.216 132.716 19.216ZM132.716 16.288C133.324 16.288 133.892 16.144 134.42 15.856C134.964 15.552 135.396 15.104 135.716 14.512C136.036 13.92 136.196 13.2 136.196 12.352C136.196 11.088 135.86 10.12 135.188 9.448C134.532 8.76 133.724 8.416 132.764 8.416C131.804 8.416 130.996 8.76 130.34 9.448C129.7 10.12 129.38 11.088 129.38 12.352C129.38 13.616 129.692 14.592 130.316 15.28C130.956 15.952 131.756 16.288 132.716 16.288ZM148.021 19.216C146.741 19.216 145.589 18.936 144.565 18.376C143.541 17.8 142.733 16.992 142.141 15.952C141.565 14.912 141.277 13.712 141.277 12.352C141.277 10.992 141.573 9.792 142.165 8.752C142.773 7.712 143.597 6.912 144.637 6.352C145.677 5.776 146.837 5.488 148.117 5.488C149.397 5.488 150.557 5.776 151.597 6.352C152.637 6.912 153.453 7.712 154.045 8.752C154.653 9.792 154.957 10.992 154.957 12.352C154.957 13.712 154.645 14.912 154.021 15.952C153.413 16.992 152.581 17.8 151.525 18.376C150.485 18.936 149.317 19.216 148.021 19.216ZM148.021 16.288C148.629 16.288 149.197 16.144 149.725 15.856C150.269 15.552 150.701 15.104 151.021 14.512C151.341 13.92 151.501 13.2 151.501 12.352C151.501 11.088 151.165 10.12 150.493 9.448C149.837 8.76 149.029 8.416 148.069 8.416C147.109 8.416 146.301 8.76 145.645 9.448C145.005 10.12 144.685 11.088 144.685 12.352C144.685 13.616 144.997 14.592 145.621 15.28C146.261 15.952 147.061 16.288 148.021 16.288ZM160.782 1.24V19H157.422V1.24H160.782Z" fill="url(#paint0_linear_2_20)"/>
<defs>
<linearGradient id="paint0_linear_2_20" x1="-1.27528e-07" y1="11" x2="163" y2="-66.5" gradientUnits="userSpaceOnUse">
<stop offset="0.375" stop-color="#D21111"/>
<stop offset="1" stop-color="#F56D21"/>
</linearGradient>
</defs>
</svg>
